<?xml version="1.0" encoding="UTF-8"?>
<svg id="Layer_1" data-name="Layer 1" xmlns="http://www.w3.org/2000/svg" xmlns:xlink="http://www.w3.org/1999/xlink" viewBox="0 0 314.32 169.81">
  <defs>
    <style>
      .cls-1 {
        fill: none;
      }

      .cls-2 {
        clip-path: url(#clippath-1);
      }

      .cls-3 {
        clip-path: url(#clippath-3);
      }

      .cls-4 {
        clip-path: url(#clippath-4);
      }

      .cls-5 {
        clip-path: url(#clippath-2);
      }

      .cls-6 {
        fill: #fff;
      }

      .cls-7 {
        clip-path: url(#clippath);
      }
    </style>
    <clipPath id="clippath">
      <rect class="cls-1" x="55.09" y="29.76" width="204.15" height="110.29"/>
    </clipPath>
    <clipPath id="clippath-1">
      <rect class="cls-1" x="55.09" y="29.76" width="204.15" height="110.29"/>
    </clipPath>
    <clipPath id="clippath-2">
      <rect class="cls-1" x="55.09" y="29.76" width="204.15" height="110.29"/>
    </clipPath>
    <clipPath id="clippath-3">
      <rect class="cls-1" x="55.09" y="29.76" width="204.15" height="110.29"/>
    </clipPath>
    <clipPath id="clippath-4">
      <rect class="cls-1" x="55.09" y="29.76" width="204.15" height="110.29"/>
    </clipPath>
  </defs>
  <g class="cls-7">
    <path class="cls-6" d="M148.24,129.56c1.69,0,2.92.25,3.69.75.62.4,1.11.95,1.46,1.66.35.71.53,1.49.53,2.35,0,1.88-.67,3.25-2,4.12-.76.5-1.99.74-3.69.74h-5.3v-9.62h5.3ZM148.01,130.85h-3.47v6.99h3.47c1.49,0,2.56-.25,3.21-.75.71-.53,1.06-1.46,1.06-2.79s-.35-2.18-1.06-2.71c-.66-.5-1.73-.75-3.21-.75"/>
  </g>
  <polygon class="cls-6" points="166.21 129.56 166.21 139.18 175.55 139.18 175.55 137.86 167.81 137.86 167.81 134.8 172.49 134.8 172.49 133.53 167.81 133.53 167.81 130.85 175.47 130.85 175.47 129.56 166.21 129.56"/>
  <g class="cls-2">
    <path class="cls-6" d="M195.78,130.84h-6.81v2.7h6.06c.87,0,1.46.16,1.77.48.31.33.46.92.46,1.79v1.08c0,.88-.15,1.48-.46,1.8-.31.32-.9.47-1.77.47h-5.61c-.87,0-1.47-.16-1.78-.47-.32-.32-.47-.92-.47-1.8v-.26l1.49-.36v1.55h7.16v-2.89h-6.04c-.86,0-1.45-.16-1.77-.48-.32-.31-.48-.91-.48-1.8v-.84c0-.89.16-1.5.48-1.81.32-.31.9-.46,1.77-.46h5.12c.82,0,1.4.15,1.74.44.34.3.51.84.51,1.65v.2l-1.38.4v-1.4Z"/>
  </g>
  <rect class="cls-6" x="210.34" y="129.56" width="1.6" height="9.62"/>
  <g class="cls-5">
    <path class="cls-6" d="M234.15,130.84h-7.53v6.99h7.53v-2.81h-3.9v-1.23h5.5v3.11c0,.88-.16,1.48-.48,1.8-.32.32-.91.47-1.78.47h-6.23c-.87,0-1.46-.16-1.78-.47-.32-.32-.47-.92-.47-1.8v-5.07c0-.88.16-1.48.47-1.8.32-.31.91-.48,1.78-.48h6.23c.85,0,1.43.15,1.76.45.33.3.5.86.5,1.69v.24l-1.6.32v-1.42Z"/>
    <path class="cls-6" d="M248.58,139.18v-9.62h1.01l7.2,6.43c.34.31.71.72,1.1,1.21-.1-.59-.15-1.39-.15-2.37v-5.28h1.49v9.62h-.9l-7.4-6.7c-.27-.25-.43-.39-.47-.43-.2-.2-.36-.42-.5-.65.07.57.11,1.27.11,2.11v5.67h-1.49Z"/>
    <path class="cls-6" d="M64.48,106.77c-5.94,0-9.4-4.1-9.4-12.42v-31.21c0-9.29,3.56-14.15,10.15-14.15,3.13,0,6.37,1.73,9.29,5.29v-24.51h10.48v76.24h-10.48v-4.43c-2.7,3.45-5.94,5.19-10.04,5.19M74.52,60.22c-1.51-1.51-3.02-2.37-4.42-2.37-2.38,0-4.21,1.94-4.21,5.94v29.05c0,3.35.97,4.96,3.67,4.96,1.83,0,3.35-.76,4.96-2.48v-35.1Z"/>
  </g>
  <rect class="cls-6" x="99.57" y="49.74" width="10.58" height="56.27"/>
  <rect class="cls-6" x="99.57" y="49.74" width="10.58" height="56.27"/>
  <g class="cls-3">
    <path class="cls-6" d="M131.22,88.51c.86,6.27,2.81,9.18,6.91,9.18,2.92,0,4.86-1.95,4.86-4.97,0-4.43-4.21-7.56-10.91-12.63-6.7-5.08-9.83-9.61-9.83-16.41,0-9.4,6.38-15.34,15.45-15.34s14.36,5.51,15.01,14.58l-9.93,2.37c-.76-4.75-2.59-7.13-5.62-7.13-2.81,0-4.54,1.94-4.54,4.97,0,4.54,4.43,7.02,10.58,12.1,6.59,5.51,10.15,9.83,10.15,16.95,0,9.5-6.48,15.34-15.66,15.34s-15.23-6.05-16.63-16.74l10.15-2.27Z"/>
    <path class="cls-6" d="M167.93,58.49h-6.48v-8.75h6.48v-16.2h10.48v16.2h7.78v8.75h-7.78v34.66c0,3.24,1.62,4.86,4.64,4.86.76,0,1.84-.22,3.13-.54v9.18c-2.16.65-4.11.87-6.05.87-8.1,0-12.2-4.43-12.2-13.39v-35.64Z"/>
  </g>
  <rect class="cls-6" x="198.16" y="49.74" width="10.58" height="56.27"/>
  <rect class="cls-6" x="223.22" y="29.76" width="10.58" height="76.25"/>
  <rect class="cls-6" x="248.28" y="29.76" width="10.58" height="76.25"/>
  <g class="cls-4">
    <path class="cls-6" d="M111.82,133.1c0,3.84-3.11,6.96-6.95,6.96s-6.95-3.12-6.95-6.96,3.11-6.96,6.95-6.96,6.95,3.11,6.95,6.96"/>
  </g>
</svg>